# xmcd
#
# Track frame offsets: 
#        182
#        9170
#        22042
#        38205
#        52852
#        68340
#        84477
#        96302
#        113042
#        127637
#
# Disc length: 2125 seconds
#
# Revision: 7
# Processed by: cddbd v1.4PL0 Copyright (c) Steve Scherf et al.
# Submitted via: ExactAudioCopy v0.95a2
#
DISCID=68084b0a
DTITLE=Junior Brown - Semi Crazy
DYEAR=1996
DGENRE=Country
TTITLE0=Gotta Get Up Every Morning
TTITLE1=Darlin' I'll Do Anything You Say
TTITLE2=I Hung It Up
TTITLE3=I Want To Hear It From You
TTITLE4=Semi-Crazy [w-Red Simpson]
TTITLE5=Honk Kong Blues
TTITLE6=Venom Wearin' Denim
TTITLE7=Parole Board
TTITLE8=Joe The Singing Janitor
TTITLE9=Surf Medley
EXTD=
EXTT0=
EXTT1=
EXTT2=
EXTT3=
EXTT4=
EXTT5=
EXTT6=
EXTT7=
EXTT8=
EXTT9=
PLAYORDER=
